<?xml version="1.0" encoding="UTF-8" standalone="no"?>
<svg
   xmlns:dc="http://purl.org/dc/elements/1.1/"
   xmlns:cc="http://creativecommons.org/ns#"
   xmlns:rdf="http://www.w3.org/1999/02/22-rdf-syntax-ns#"
   xmlns:svg="http://www.w3.org/2000/svg"
   xmlns="http://www.w3.org/2000/svg"
   id="svg9460"
   version="1.1"
   viewBox="0 0 118.23051 118.2305"
   height="118.2305mm"
   width="118.23051mm">
  <defs
     id="defs9454" />
  <metadata
     id="metadata9457">
    <rdf:RDF>
      <cc:Work
         rdf:about="">
        <dc:format>image/svg+xml</dc:format>
        <dc:type
           rdf:resource="http://purl.org/dc/dcmitype/StillImage" />
        <dc:title></dc:title>
      </cc:Work>
    </rdf:RDF>
  </metadata>
  <g
     transform="translate(-43.574669,-58.63456)"
     id="layer1">
    <path
       id="path10007"
       d="m 102.68992,58.63456 a 59.115295,59.115295 0 0 0 -59.115251,59.11525 59.115295,59.115295 0 0 0 59.115251,59.11525 59.115295,59.115295 0 0 0 59.11526,-59.11525 59.115295,59.115295 0 0 0 -59.11526,-59.11525 z m 0,54.84885 a 4.2660522,4.2660522 0 0 1 4.26589,4.2664 4.2660522,4.2660522 0 0 1 -4.26589,4.2659 4.2660522,4.2660522 0 0 1 -4.265886,-4.2659 4.2660522,4.2660522 0 0 1 4.265886,-4.2664 z"
       style="opacity:1;fill:#d40000;fill-opacity:1;stroke:none;stroke-width:0.26458332;stroke-opacity:1" />
    <path
       id="path10009"
       d="m 102.68992,64.119242 a 53.630372,53.630372 0 0 0 -53.630313,53.630318 53.630372,53.630372 0 0 0 53.630313,53.63083 53.630372,53.630372 0 0 0 53.63032,-53.63083 53.630372,53.630372 0 0 0 -53.63032,-53.630318 z m 0,48.348978 a 5.2817789,5.2817789 0 0 1 5.28185,5.28134 5.2817789,5.2817789 0 0 1 -5.28185,5.28184 5.2817789,5.2817789 0 0 1 -5.281842,-5.28184 5.2817789,5.2817789 0 0 1 5.281842,-5.28134 z"
       style="opacity:1;fill:#ff2a2a;fill-opacity:1;stroke:none;stroke-width:0.26458332;stroke-opacity:1" />
    <g
       id="flowRoot10023"
       style="font-style:normal;font-weight:normal;font-size:40px;line-height:1.25;font-family:sans-serif;letter-spacing:0px;word-spacing:0px;fill:#ffffff;fill-opacity:1;stroke:none"
       transform="matrix(0.58488966,0,0,0.58488966,16.112547,32.322584)"
       aria-label="25">
      <path
         id="path10031"
         style="fill:#ffffff"
         d="m 130.52344,91.964844 h 13.76953 v 3.320312 h -18.51563 v -3.320312 q 2.2461,-2.324219 6.11328,-6.230469 3.88672,-3.925781 4.88282,-5.058594 1.89453,-2.128906 2.63672,-3.59375 0.76171,-1.484375 0.76171,-2.910156 0,-2.324219 -1.64062,-3.789063 -1.62109,-1.464843 -4.23828,-1.464843 -1.85547,0 -3.92578,0.644531 -2.05078,0.644531 -4.39453,1.953125 V 67.53125 q 2.38281,-0.957031 4.45312,-1.445313 2.07031,-0.488281 3.78906,-0.488281 4.53125,0 7.22657,2.265625 2.69531,2.265625 2.69531,6.054688 0,1.796875 -0.6836,3.417968 -0.66406,1.601563 -2.4414,3.789063 -0.48828,0.566406 -3.10547,3.28125 -2.61719,2.695312 -7.38281,7.558594 z" />
      <path
         id="path10033"
         style="fill:#ffffff"
         d="m 152.63281,66.125 h 15.48828 v 3.320312 h -11.875 v 7.148438 q 0.85938,-0.292969 1.71875,-0.429688 0.85938,-0.15625 1.71875,-0.15625 4.88282,0 7.73438,2.675782 2.85156,2.675781 2.85156,7.246093 0,4.707032 -2.92969,7.324219 -2.92968,2.597656 -8.26172,2.597656 -1.83593,0 -3.75,-0.3125 -1.89453,-0.3125 -3.92578,-0.9375 v -3.964843 q 1.75782,0.957031 3.63282,1.425781 1.875,0.46875 3.96484,0.46875 3.37891,0 5.35156,-1.777344 1.97266,-1.777344 1.97266,-4.824219 0,-3.046875 -1.97266,-4.824218 -1.97265,-1.777344 -5.35156,-1.777344 -1.58203,0 -3.16406,0.351562 -1.5625,0.351563 -3.20313,1.09375 z" />
    </g>
    <g
       id="flowRoot10057"
       style="font-style:normal;font-weight:normal;font-size:40px;line-height:1.25;font-family:sans-serif;letter-spacing:0px;word-spacing:0px;fill:#ffffff;fill-opacity:1;stroke:none"
       transform="matrix(0.40539852,0,0,0.40539852,65.432057,60.075058)"
       aria-label="KG">
      <path
         style="fill:#ffffff"
         id="path10065"
         d="m 66.884766,83.015625 h 3.945312 V 95.339844 L 83.916016,83.015625 h 5.078125 L 74.521484,96.609375 90.029297,112.17578 H 84.833984 L 70.830078,98.132812 v 14.042968 h -3.945312 z" />
      <path
         style="fill:#ffffff"
         id="path10067"
         d="m 113.01758,108.01563 v -7.83204 h -6.44531 v -3.242184 h 10.35156 v 12.519534 q -2.28516,1.62109 -5.03906,2.46094 -2.75391,0.82031 -5.87891,0.82031 -6.835938,0 -10.703126,-3.98438 -3.847656,-4.0039 -3.847656,-11.13281 0,-7.148438 3.847656,-11.132813 3.867188,-4.003906 10.703126,-4.003906 2.85156,0 5.41016,0.703125 2.57812,0.703125 4.74609,2.070313 v 4.199218 q -2.1875,-1.855468 -4.64844,-2.792968 -2.46094,-0.9375 -5.17578,-0.9375 -5.35156,0 -8.046874,2.988281 -2.675782,2.988281 -2.675782,8.90625 0,5.89844 2.675782,8.88672 2.695314,2.98828 8.046874,2.98828 2.08984,0 3.73047,-0.35156 1.64062,-0.3711 2.94922,-1.13281 z" />
    </g>
    <g
       id="flowRoot10023-5"
       style="font-style:normal;font-weight:normal;font-size:40px;line-height:1.25;font-family:sans-serif;letter-spacing:0px;word-spacing:0px;fill:#ffffff;fill-opacity:1;stroke:none"
       transform="matrix(-0.58488966,0,0,-0.58488966,189.2673,201.08708)"
       aria-label="25">
      <path
         id="path10031-0"
         style="fill:#ffffff"
         d="m 130.52344,91.964844 h 13.76953 v 3.320312 h -18.51563 v -3.320312 q 2.2461,-2.324219 6.11328,-6.230469 3.88672,-3.925781 4.88282,-5.058594 1.89453,-2.128906 2.63672,-3.59375 0.76171,-1.484375 0.76171,-2.910156 0,-2.324219 -1.64062,-3.789063 -1.62109,-1.464843 -4.23828,-1.464843 -1.85547,0 -3.92578,0.644531 -2.05078,0.644531 -4.39453,1.953125 V 67.53125 q 2.38281,-0.957031 4.45312,-1.445313 2.07031,-0.488281 3.78906,-0.488281 4.53125,0 7.22657,2.265625 2.69531,2.265625 2.69531,6.054688 0,1.796875 -0.6836,3.417968 -0.66406,1.601563 -2.4414,3.789063 -0.48828,0.566406 -3.10547,3.28125 -2.61719,2.695312 -7.38281,7.558594 z" />
      <path
         id="path10033-0"
         style="fill:#ffffff"
         d="m 152.63281,66.125 h 15.48828 v 3.320312 h -11.875 v 7.148438 q 0.85938,-0.292969 1.71875,-0.429688 0.85938,-0.15625 1.71875,-0.15625 4.88282,0 7.73438,2.675782 2.85156,2.675781 2.85156,7.246093 0,4.707032 -2.92969,7.324219 -2.92968,2.597656 -8.26172,2.597656 -1.83593,0 -3.75,-0.3125 -1.89453,-0.3125 -3.92578,-0.9375 v -3.964843 q 1.75782,0.957031 3.63282,1.425781 1.875,0.46875 3.96484,0.46875 3.37891,0 5.35156,-1.777344 1.97266,-1.777344 1.97266,-4.824219 0,-3.046875 -1.97266,-4.824218 -1.97265,-1.777344 -5.35156,-1.777344 -1.58203,0 -3.16406,0.351562 -1.5625,0.351563 -3.20313,1.09375 z" />
    </g>
    <g
       id="flowRoot10057-3"
       style="font-style:normal;font-weight:normal;font-size:40px;line-height:1.25;font-family:sans-serif;letter-spacing:0px;word-spacing:0px;fill:#ffffff;fill-opacity:1;stroke:none"
       transform="matrix(-0.40539853,0,0,-0.40539853,139.94779,173.33461)"
       aria-label="KG">
      <path
         style="fill:#ffffff"
         id="path10065-4"
         d="m 66.884766,83.015625 h 3.945312 V 95.339844 L 83.916016,83.015625 h 5.078125 L 74.521484,96.609375 90.029297,112.17578 H 84.833984 L 70.830078,98.132812 v 14.042968 h -3.945312 z" />
      <path
         style="fill:#ffffff"
         id="path10067-6"
         d="m 113.01758,108.01563 v -7.83204 h -6.44531 v -3.242184 h 10.35156 v 12.519534 q -2.28516,1.62109 -5.03906,2.46094 -2.75391,0.82031 -5.87891,0.82031 -6.835938,0 -10.703126,-3.98438 -3.847656,-4.0039 -3.847656,-11.13281 0,-7.148438 3.847656,-11.132813 3.867188,-4.003906 10.703126,-4.003906 2.85156,0 5.41016,0.703125 2.57812,0.703125 4.74609,2.070313 v 4.199218 q -2.1875,-1.855468 -4.64844,-2.792968 -2.46094,-0.9375 -5.17578,-0.9375 -5.35156,0 -8.046874,2.988281 -2.675782,2.988281 -2.675782,8.90625 0,5.89844 2.675782,8.88672 2.695314,2.98828 8.046874,2.98828 2.08984,0 3.73047,-0.35156 1.64062,-0.3711 2.94922,-1.13281 z" />
    </g>
  </g>
</svg>
